<svg width="26" height="26" viewBox="0 0 26 26" fill="none" xmlns="http://www.w3.org/2000/svg">
<g clip-path="url(#clip0_313_3)">
<path d="M24 2.9474V24C24 24.5584 23.7893 25.0939 23.4142 25.4887C23.0391 25.8835 22.5304 26.1053 22 26.1053H17.5C16.9696 26.1053 16.4609 25.8835 16.0858 25.4887C15.7107 25.0939 15.5 24.5584 15.5 24V2.9474C15.5 2.38905 15.7107 1.85356 16.0858 1.45875C16.4609 1.06394 16.9696 0.842133 17.5 0.842133H22C22.5304 0.842133 23.0391 1.06394 23.4142 1.45875C23.7893 1.85356 24 2.38905 24 2.9474ZM8.5 0.842133H4C3.46957 0.842133 2.96086 1.06394 2.58579 1.45875C2.21071 1.85356 2 2.38905 2 2.9474V24C2 24.5584 2.21071 25.0939 2.58579 25.4887C2.96086 25.8835 3.46957 26.1053 4 26.1053H8.5C9.03043 26.1053 9.53914 25.8835 9.91421 25.4887C10.2893 25.0939 10.5 24.5584 10.5 24V2.9474C10.5 2.38905 10.2893 1.85356 9.91421 1.45875C9.53914 1.06394 9.03043 0.842133 8.5 0.842133Z" fill="#397097"/>
</g>
<defs>
<clipPath id="clip0_313_3">
<rect width="26" height="26" fill="white"/>
</clipPath>
</defs>
</svg>
