<svg width="28" height="28" viewBox="0 0 28 28" fill="none" xmlns="http://www.w3.org/2000/svg">
<g clip-path="url(#clip0_313_2)">
<path d="M27.0375 12.671L9.03751 1.10524C8.73768 0.905239 8.39141 0.795783 8.03651 0.788821C7.68161 0.78186 7.33171 0.877662 7.02501 1.06577C6.71377 1.24551 6.45432 1.51024 6.27394 1.8321C6.09356 2.15395 5.99893 2.52103 6.00001 2.89472V26.0526C5.99893 26.4263 6.09356 26.7934 6.27394 27.1152C6.45432 27.4371 6.71377 27.7018 7.02501 27.8816C7.33171 28.0697 7.68161 28.1655 8.03651 28.1585C8.39141 28.1515 8.73768 28.0421 9.03751 27.8421L27.0375 16.2763C27.3325 16.0889 27.5766 15.8245 27.746 15.5087C27.9154 15.1929 28.0044 14.8364 28.0044 14.4737C28.0044 14.111 27.9154 13.7544 27.746 13.4386C27.5766 13.1228 27.3325 12.8584 27.0375 12.671Z" fill="#BA4949"/>
</g>
<defs>
<clipPath id="clip0_313_2">
<rect width="28" height="28" fill="white"/>
</clipPath>
</defs>
</svg>
